<svg xmlns="http://www.w3.org/2000/svg" id="wings" viewBox="-4046 -4046 8092 8092"><defs><radialGradient id="gradient"><stop offset="0%" stop-color="hsl(300, 100%, 50%)"/><stop offset="38%" stop-color="hsl(290, 100%, 50%)"/><stop offset="62%" stop-color="hsl(280, 100%, 50%)"/><stop offset="76%" stop-color="hsl(270, 100%, 50%)"/><stop offset="85%" stop-color="hsl(260, 100%, 50%)"/><stop offset="91%" stop-color="hsl(250, 100%, 50%)"/></radialGradient><style>circle,path,polygon{stroke-width:8px}</style><mask id="bgMask"><path d="M-4046-4046h8092v8092h-8092Z"/><circle r="4046" fill="#fff"/></mask><g id="guide"><circle r="4046" fill="none"/><circle r="3180.768" fill="none"/><circle r="2500.566" fill="none"/><circle r="1965.823" fill="none"/><circle r="1545.434" fill="none"/><circle r="1214.945" fill="none"/><circle r="955.131" fill="none"/><circle r="750.878" fill="none"/><circle r="590.303" fill="none"/><circle r="464.068" fill="none"/><circle r="364.828" fill="none"/><circle r="286.81" fill="none"/><circle r="225.476" fill="none"/><path d="M0-4046v3820.52M422.92-4023.84 23.57-224.24M841.21-3957.59 46.88-220.55M1250.28-3847.97 69.68-214.44M1645.66-3696.2 91.71-205.98M2023-3503.94 112.74-195.27M2378.18-3273.28 132.53-182.41M2707.3-3006.76 150.87-167.56M3006.76-2707.3 167.56-150.87M3273.28-2378.18 182.41-132.53M3503.94-2023 195.27-112.74M3696.2-1645.66 205.98-91.71M3847.97-1250.28 214.44-69.68M3957.59-841.21 220.55-46.88M4023.84-422.92 224.24-23.57M4046 0H225.48M4023.84 422.92 224.24 23.57M3957.59 841.21 220.55 46.88M3847.97 1250.28 214.44 69.68M3696.2 1645.66 205.98 91.71M3503.94 2023 195.27 112.74M3273.28 2378.18 182.41 132.53M3006.76 2707.3 167.56 150.87M2707.3 3006.76 150.87 167.56M2378.18 3273.28 132.53 182.41M2023 3503.94 112.74 195.27M1645.66 3696.2 91.71 205.98M1250.28 3847.97 69.68 214.44M841.21 3957.59 46.88 220.55M422.92 4023.84 23.57 224.24M0 4046V225.48M-422.92 4023.84l399.35-3799.6M-841.21 3957.59-46.88 220.55M-1250.28 3847.97-69.68 214.44M-1645.66 3696.2-91.71 205.98M-2023 3503.94-112.74 195.27M-2378.18 3273.28-132.53 182.41M-2707.3 3006.76l2556.43-2839.2M-3006.76 2707.3l2839.2-2556.43M-3273.28 2378.18-182.41 132.53M-3503.94 2023-195.27 112.74M-3696.2 1645.66-205.98 91.71M-3847.97 1250.28-214.44 69.68M-3957.59 841.21-220.55 46.88M-4023.84 422.92l3799.6-399.35M-4046 0h3820.52M-4023.84-422.92l3799.6 399.35M-3957.59-841.21-220.55-46.88M-3847.97-1250.28-214.44-69.68M-3696.2-1645.66-205.98-91.71M-3503.94-2023-195.27-112.74M-3273.28-2378.18-182.41-132.53M-3006.76-2707.3l2839.2 2556.43M-2707.3-3006.76l2556.43 2839.2M-2378.18-3273.28-132.53-182.41M-2023-3503.94-112.74-195.27M-1645.66-3696.2-91.71-205.98M-1250.28-3847.97-69.68-214.44M-841.21-3957.59-46.88-220.55M-422.92-4023.84l399.35 3799.6"/></g></defs><path d="M-4046-4046h8092v8092h-8092Z"/><path fill="url(#gradient)" d="M-4046-4046h8092v8092h-8092Z" mask="url(#bgMask)"/><circle r="4046" fill="hsla(210, 100%, 0%, 0.33)" stroke="hsl(210, 100%, 50%)"/><circle r="3180.768" fill="hsla(210, 100%, 8.333333333333334%, 0.33)" stroke="hsl(210, 100%, 41.666666666666664%)"/><circle r="2500.566" fill="hsla(210, 100%, 16.666666666666668%, 0.33)" stroke="hsl(210, 100%, 33.33333333333333%)"/><circle r="1965.823" fill="hsla(210, 100%, 25%, 0.33)" stroke="hsl(210, 100%, 25%)"/><circle r="1545.434" fill="hsla(210, 100%, 33.333333333333336%, 0.33)" stroke="hsl(210, 100%, 16.666666666666664%)"/><circle r="1214.945" fill="hsla(210, 100%, 41.66666666666667%, 0.33)" stroke="hsl(210, 100%, 8.333333333333329%)"/><circle r="955.131" fill="hsla(210, 100%, 50%, 0.33)" stroke="hsl(210, 100%, 0%)"/><circle r="750.878" fill="hsla(210, 100%, 58.333333333333336%, 0.33)" stroke="hsl(210, 100%, -8.333333333333336%)"/><circle r="590.303" fill="hsla(210, 100%, 66.66666666666667%, 0.33)" stroke="hsl(210, 100%, -16.66666666666667%)"/><circle r="464.068" fill="hsla(210, 100%, 75%, 0.33)" stroke="hsl(210, 100%, -25%)"/><circle r="364.828" fill="hsla(210, 100%, 83.33333333333334%, 0.33)" stroke="hsl(210, 100%, -33.33333333333334%)"/><circle r="286.81" fill="hsla(210, 100%, 91.66666666666667%, 0.33)" stroke="hsl(210, 100%, -41.66666666666667%)"/><circle r="225.476" fill="hsla(210, 100%, 100%, 0.33)" stroke="hsl(210, 100%, -50%)"/><use stroke="hsla(0, 0%, 75%, 0.25)" href="#guide"/><circle r="225.476"/><g stroke="hsla(210, 50%, 50%, 1)"><path fill="none" d="m0-4046 908.38 2795.72h2939.59L1469.8 477.57l908.38 2795.71L0 1545.43l-2378.18 1727.85 908.38-2795.71-2378.17-1727.85h2939.59z"/><path fill="none" d="M0-1545.43 346.97-477.57H1469.8L561.41 182.41l346.97 1067.87L0 590.3l-908.38 659.98 346.97-1067.87-908.39-659.98h1122.83z"/><path fill="none" d="m0-590.3 132.53 407.89h428.88L214.44 69.68l132.53 407.89L0 225.48l-346.97 252.09 132.53-407.89-346.97-252.09h428.88z"/><path fill="#fff" d="m0-225.48 50.62 155.8h163.82L81.91 26.61l50.62 155.8L0 86.12l-132.53 96.29 50.62-155.8-132.53-96.29h163.82z"/></g><path fill="hsla(210, 50%, 100%, 0.75)" stroke="hsl(210, 50%, 50%)" d="m214.44-69.68 3633.53-1180.6q109.62 409.07-736.71 588.96L220.55-46.88a225.476 225.476 0 0 0-6.11-22.8Z"/><path fill="hsla(210, 50%, 91.66666666666667%, 0.75)" stroke="hsl(210, 50%, 50%)" d="m220.55-46.88 2890.71-614.44q52.08 328.84-624.39 399.94L224.24-23.57a225.476 225.476 0 0 0-3.69-23.31Z"/><path fill="hsla(210, 50%, 83.33333333333333%, 0.75)" stroke="hsl(210, 50%, 50%)" d="m224.24-23.57 2262.63-237.81Q2500.57 0 1965.82 0H225.48a225.476 225.476 0 0 0-1.24-23.57Z"/><path fill="hsla(210, 50%, 75%, 0.75)" stroke="hsl(210, 50%, 50%)" d="M225.48 0h1740.34q-10.77 205.48-428.85 161.54L224.24 23.57A225.476 225.476 0 0 0 225.48 0Z"/><path fill="hsla(210, 50%, 66.66666666666666%, 0.75)" stroke="hsl(210, 50%, 50%)" d="m224.24 23.57 1312.73 137.97q-25.31 159.77-348.57 91.06L220.55 46.88a225.476 225.476 0 0 0 3.69-23.31Z"/><path fill="hsla(210, 50%, 58.33333333333333%, 0.75)" stroke="hsl(210, 50%, 50%)" d="M220.55 46.88 1188.4 252.6q-32.92 122.84-280.02 42.55L214.44 69.68a225.476 225.476 0 0 0 6.11-22.8Z"/><path fill="hsla(210, 50%, 50%, 0.75)" stroke="hsl(210, 50%, 50%)" d="m214.44 69.68 693.94 225.47q-35.82 93.34-222.42 10.26L205.98 91.71a225.476 225.476 0 0 0 8.46-22.03Z"/><path fill="hsla(210, 50%, 41.666666666666664%, 0.75)" stroke="hsl(210, 50%, 50%)" d="m205.98 91.71 479.98 213.7q-35.68 70.03-174.74-10.26L195.27 112.74a225.476 225.476 0 0 0 10.71-21.03Z"/><path fill="hsla(210, 50%, 33.33333333333333%, 0.75)" stroke="hsl(210, 50%, 50%)" d="m195.27 112.74 315.95 182.41q-33.65 51.82-135.78-22.38L182.41 132.53a225.476 225.476 0 0 0 12.86-19.79Z"/><path fill="hsla(210, 50%, 25%, 0.75)" stroke="hsl(210, 50%, 50%)" d="m182.41 132.53 193.03 140.24q-30.57 37.75-104.32-28.65l-103.56-93.25a225.476 225.476 0 0 0 14.85-18.34Z"/><path fill="hsla(210, 50%, 16.666666666666657%, 0.75)" stroke="hsl(210, 50%, 50%)" d="m167.56 150.87 103.56 93.25q-27 27-79.21-30.98l-41.04-45.58a225.476 225.476 0 0 0 16.69-16.69Z"/><path fill="hsla(210, 50%, 8.333333333333329%, 0.75)" stroke="hsl(210, 50%, 50%)" d="m150.87 167.56 41.04 45.58q-23.33 18.89-59.38-30.73a225.476 225.476 0 0 0 18.34-14.85Z"/><path fill="hsla(210, 50%, 100%, 0.75)" stroke="hsl(210, 50%, 50%)" d="m-214.44-69.68-3633.53-1180.6q-109.62 409.07 736.71 588.96L-220.55-46.88a225.476 225.476 0 0 0 6.11-22.8Z"/><path fill="hsla(210, 50%, 91.66666666666667%, 0.75)" stroke="hsl(210, 50%, 50%)" d="m-220.55-46.88-2890.71-614.44q-52.08 328.84 624.39 399.94L-224.24-23.57a225.476 225.476 0 0 0 3.69-23.31Z"/><path fill="hsla(210, 50%, 83.33333333333333%, 0.75)" stroke="hsl(210, 50%, 50%)" d="m-224.24-23.57-2262.63-237.81Q-2500.57 0-1965.82 0h1740.34a225.476 225.476 0 0 0 1.24-23.57Z"/><path fill="hsla(210, 50%, 75%, 0.75)" stroke="hsl(210, 50%, 50%)" d="M-225.48 0h-1740.34q10.77 205.48 428.85 161.54L-224.24 23.57A225.476 225.476 0 0 0-225.48 0Z"/><path fill="hsla(210, 50%, 66.66666666666666%, 0.75)" stroke="hsl(210, 50%, 50%)" d="m-224.24 23.57-1312.73 137.97q25.31 159.77 348.57 91.06l967.85-205.72a225.476 225.476 0 0 0-3.69-23.31Z"/><path fill="hsla(210, 50%, 58.33333333333333%, 0.75)" stroke="hsl(210, 50%, 50%)" d="M-220.55 46.88-1188.4 252.6q32.92 122.84 280.02 42.55l693.94-225.47a225.476 225.476 0 0 0-6.11-22.8Z"/><path fill="hsla(210, 50%, 50%, 0.75)" stroke="hsl(210, 50%, 50%)" d="m-214.44 69.68-693.94 225.47q35.82 93.34 222.42 10.26l479.98-213.7a225.476 225.476 0 0 0-8.46-22.03Z"/><path fill="hsla(210, 50%, 41.666666666666664%, 0.75)" stroke="hsl(210, 50%, 50%)" d="m-205.98 91.71-479.98 213.7q35.68 70.03 174.74-10.26l315.95-182.41a225.476 225.476 0 0 0-10.71-21.03Z"/><path fill="hsla(210, 50%, 33.33333333333333%, 0.75)" stroke="hsl(210, 50%, 50%)" d="m-195.27 112.74-315.95 182.41q33.65 51.82 135.78-22.38l193.03-140.24a225.476 225.476 0 0 0-12.86-19.79Z"/><path fill="hsla(210, 50%, 25%, 0.75)" stroke="hsl(210, 50%, 50%)" d="m-182.41 132.53-193.03 140.24q30.57 37.75 104.32-28.65l103.56-93.25a225.476 225.476 0 0 0-14.85-18.34Z"/><path fill="hsla(210, 50%, 16.666666666666657%, 0.75)" stroke="hsl(210, 50%, 50%)" d="m-167.56 150.87-103.56 93.25q27 27 79.21-30.98l41.04-45.58a225.476 225.476 0 0 0-16.69-16.69Z"/><path fill="hsla(210, 50%, 8.333333333333329%, 0.75)" stroke="hsl(210, 50%, 50%)" d="m-150.87 167.56-41.04 45.58q23.33 18.89 59.38-30.73a225.476 225.476 0 0 0-18.34-14.85Z"/></svg>